<svg xmlns="http://www.w3.org/2000/svg" version="1.1" xmlns:xlink="http://www.w3.org/1999/xlink" xmlns:svgjs="http://svgjs.dev/svgjs" width="2000" height="974" viewBox="0 0 2000 974"><g transform="matrix(1,0,0,1,-1.2121212121212466,-0.8059488743761563)"><svg viewBox="0 0 396 193" data-background-color="#dddddd" preserveAspectRatio="xMidYMid meet" height="974" width="2000" xmlns="http://www.w3.org/2000/svg" xmlns:xlink="http://www.w3.org/1999/xlink"><g id="tight-bounds" transform="matrix(1,0,0,1,0.2400000000000091,0.15970034163716207)"><svg viewBox="0 0 395.52 192.68059931672568" height="192.68059931672568" width="395.52"><g><svg viewBox="0 0 395.52 192.68059931672568" height="192.68059931672568" width="395.52"><g transform="matrix(1,0,0,1,0,142.1742795632166)"><svg viewBox="0 0 395.52 50.50631975350907" height="50.50631975350907" width="395.52"><g id="textblocktransform"><svg viewBox="0 0 395.52 50.50631975350907" height="50.50631975350907" width="395.52" id="textblock"><g><svg viewBox="0 0 395.52 50.50631975350907" height="50.50631975350907" width="395.52"><g transform="matrix(1,0,0,1,0,0)"><svg width="395.52" viewBox="1.15 -36.85 292.07000000000005 37.300000000000004" height="50.50631975350907" data-palette-color="#731f1f"><path d="M19.05 0.45L19.05 0.45Q14.7 0.45 11.5-1.45 8.3-3.35 6.53-6.63 4.75-9.9 4.75-14.05L4.75-14.05 4.75-35.85 9.6-35.85 9.6-14.1Q9.6-11.15 10.7-8.83 11.8-6.5 13.93-5.18 16.05-3.85 19.05-3.85L19.05-3.85Q22.05-3.85 24.15-5.15 26.25-6.45 27.35-8.75 28.45-11.05 28.45-14.05L28.45-14.05 28.45-35.85 33.3-35.85 33.3-14.05Q33.3-9.8 31.5-6.53 29.7-3.25 26.5-1.4 23.3 0.45 19.05 0.45ZM1.15-35.85L6.25-35.85 5.7-31.95 1.95-32.75Q1.55-32.85 1.35-33.1 1.15-33.35 1.15-33.8L1.15-33.8 1.15-35.85ZM8.15-35.85L13.25-35.85 13.25-33.8Q13.25-33.35 13.05-33.1 12.85-32.85 12.45-32.75L12.45-32.75 8.7-31.95 8.15-35.85ZM24.85-35.85L29.95-35.85 29.4-31.95 25.65-32.75Q25.25-32.85 25.05-33.1 24.85-33.35 24.85-33.8L24.85-33.8 24.85-35.85ZM31.85-35.85L36.95-35.85 36.95-33.8Q36.95-33.35 36.75-33.1 36.55-32.85 36.15-32.75L36.15-32.75 32.4-31.95 31.85-35.85ZM49 0.4L49 0.4Q46 0.4 44.37-1.28 42.75-2.95 42.75-6.1L42.75-6.1 42.75-21.6 39.7-21.6Q39.3-21.6 39.02-21.85 38.75-22.1 38.75-22.6L38.75-22.6 38.75-24.35 42.9-24.9 43.95-32.7Q44.05-33.55 44.95-33.55L44.95-33.55 47.2-33.55 47.2-24.85 54.45-24.85 54.45-21.6 47.2-21.6 47.2-6.4Q47.2-4.8 47.97-4.03 48.75-3.25 50-3.25L50-3.25Q50.55-3.25 51.2-3.55 51.85-3.85 52.4-4.15 52.95-4.45 53.2-4.45L53.2-4.45Q53.55-4.45 53.8-4.05L53.8-4.05 55.1-1.9Q53.95-0.85 52.32-0.23 50.7 0.4 49 0.4ZM65.7 0L61.25 0 61.25-25.35 65.7-25.35 65.7 0ZM62.75 0L57.65 0 57.65-2.05Q57.65-2.5 57.85-2.78 58.05-3.05 58.45-3.1L58.45-3.1 62.2-3.9 62.75 0ZM69.3 0L64.2 0 64.75-3.9 68.5-3.1Q68.9-3.05 69.09-2.78 69.3-2.5 69.3-2.05L69.3-2.05 69.3 0ZM57.65-25.35L62.75-25.35 62.2-21.45 58.45-22.25Q58.05-22.35 57.85-22.6 57.65-22.85 57.65-23.3L57.65-23.3 57.65-25.35ZM63.4-30.15L63.4-30.15Q62.15-30.15 61.2-31.1 60.25-32.05 60.25-33.3L60.25-33.3Q60.25-34.6 61.2-35.55 62.15-36.5 63.4-36.5L63.4-36.5Q64.7-36.5 65.65-35.55 66.59-34.6 66.59-33.3L66.59-33.3Q66.59-32.05 65.65-31.1 64.7-30.15 63.4-30.15ZM83.74 0.35L83.74 0.35Q82.14 0.35 80.54 0.2 78.94 0.05 77.27-0.25 75.59-0.55 73.84-1L73.84-1 73.84-36.85 78.29-36.85 78.29-21.7Q79.84-23.5 81.92-24.63 83.99-25.75 86.59-25.75L86.59-25.75Q89.69-25.75 91.82-24.15 93.94-22.55 95.04-19.73 96.14-16.9 96.14-13.15L96.14-13.15Q96.14-9.2 94.89-6.15 93.64-3.1 90.92-1.38 88.19 0.35 83.74 0.35ZM83.69-3.1L83.69-3.1Q86.34-3.1 88.09-4.17 89.84-5.25 90.69-7.45 91.54-9.65 91.54-13L91.54-13Q91.54-17.5 89.97-19.85 88.39-22.2 85.09-22.2L85.09-22.2Q82.94-22.2 81.29-21.2 79.64-20.2 78.29-18.35L78.29-18.35 78.29-3.9Q79.79-3.55 81.12-3.33 82.44-3.1 83.69-3.1ZM70.24-36.85L75.34-36.85 74.79-32.95 71.04-33.75Q70.64-33.85 70.44-34.1 70.24-34.35 70.24-34.8L70.24-34.8 70.24-36.85ZM110.24 0.4L110.24 0.4Q107.49 0.4 105.59-0.83 103.69-2.05 102.72-4.2 101.74-6.35 101.74-9.2L101.74-9.2 101.74-25.35 106.19-25.35 106.19-9.2Q106.19-6.3 107.52-4.73 108.84-3.15 111.54-3.15L111.54-3.15Q113.49-3.15 115.22-4.08 116.94-5 118.39-6.65L118.39-6.65 118.39-25.35 122.84-25.35 122.84 0 120.19 0Q119.19 0 118.99-0.95L118.99-0.95 118.64-3.65Q116.99-1.85 114.94-0.73 112.89 0.4 110.24 0.4ZM126.44 0L121.34 0 121.89-3.9 125.64-3.1Q126.04-3.05 126.24-2.78 126.44-2.5 126.44-2.05L126.44-2.05 126.44 0ZM98.14-25.35L103.24-25.35 102.69-21.45 98.94-22.25Q98.54-22.35 98.34-22.6 98.14-22.85 98.14-23.3L98.14-23.3 98.14-25.35ZM114.79-25.35L119.89-25.35 119.34-21.45 115.59-22.25Q115.19-22.35 114.99-22.6 114.79-22.85 114.79-23.3L114.79-23.3 114.79-25.35ZM150.24 0L145.34 0 145.34-35.85 150.24-35.85 150.24-19.85 169.54-19.85 169.54-35.85 174.44-35.85 174.44 0 169.54 0 169.54-16.3 150.24-16.3 150.24 0ZM146.84 0L141.74 0 141.74-2.05Q141.74-2.5 141.94-2.78 142.14-3.05 142.54-3.1L142.54-3.1 146.29-3.9 146.84 0ZM153.84 0L148.74 0 149.29-3.9 153.04-3.1Q153.44-3.05 153.64-2.78 153.84-2.5 153.84-2.05L153.84-2.05 153.84 0ZM141.74-35.85L146.84-35.85 146.29-31.95 142.54-32.75Q142.14-32.85 141.94-33.1 141.74-33.35 141.74-33.8L141.74-33.8 141.74-35.85ZM148.74-35.85L153.84-35.85 153.84-33.8Q153.84-33.35 153.64-33.1 153.44-32.85 153.04-32.75L153.04-32.75 149.29-31.95 148.74-35.85ZM170.99 0L165.89 0 165.89-2.05Q165.89-2.5 166.09-2.78 166.29-3.05 166.69-3.1L166.69-3.1 170.44-3.9 170.99 0ZM178.04 0L172.94 0 173.49-3.9 177.24-3.1Q177.64-3.05 177.84-2.78 178.04-2.5 178.04-2.05L178.04-2.05 178.04 0ZM165.89-35.85L170.99-35.85 170.44-31.95 166.69-32.75Q166.29-32.85 166.09-33.1 165.89-33.35 165.89-33.8L165.89-33.8 165.89-35.85ZM172.94-35.85L178.04-35.85 178.04-33.8Q178.04-33.35 177.84-33.1 177.64-32.85 177.24-32.75L177.24-32.75 173.49-31.95 172.94-35.85ZM193.48 0.35L193.48 0.35Q189.83 0.35 187.11-1.3 184.38-2.95 182.88-6 181.38-9.05 181.38-13.2L181.38-13.2Q181.38-16.75 182.83-19.6 184.28-22.45 186.96-24.1 189.63-25.75 193.23-25.75L193.23-25.75Q196.38-25.75 198.73-24.35 201.08-22.95 202.41-20.43 203.73-17.9 203.73-14.4L203.73-14.4Q203.73-13.35 203.51-13 203.28-12.65 202.63-12.65L202.63-12.65 185.78-12.65Q185.78-12.5 185.78-12.33 185.78-12.15 185.78-12L185.78-12Q186.03-7.8 188.13-5.48 190.23-3.15 193.83-3.15L193.83-3.15Q195.38-3.15 196.91-3.78 198.43-4.4 199.61-5 200.78-5.6 201.28-5.6L201.28-5.6Q201.83-5.6 202.13-5.2L202.13-5.2 203.38-3.55Q202.38-2.25 200.71-1.38 199.03-0.5 197.13-0.08 195.23 0.35 193.48 0.35ZM185.93-15.45L185.93-15.45 199.73-15.45Q199.73-18.55 198.03-20.5 196.33-22.45 193.33-22.45L193.33-22.45Q190.08-22.45 188.23-20.6 186.38-18.75 185.93-15.45ZM214.33 0.4L214.33 0.4Q212.33 0.4 210.73-0.38 209.13-1.15 208.18-2.65 207.23-4.15 207.23-6.35L207.23-6.35Q207.23-7.85 208.06-9.22 208.88-10.6 210.73-11.7L210.73-11.7Q212.58-12.75 215.56-13.45 218.53-14.15 222.83-14.25L222.83-14.25 222.83-16.2Q222.83-19.15 221.56-20.68 220.28-22.2 217.83-22.2L217.83-22.2Q216.53-22.2 215.11-21.53 213.68-20.85 212.48-20.18 211.28-19.5 210.58-19.5L210.58-19.5Q210.13-19.5 209.81-19.75 209.48-20 209.28-20.35L209.28-20.35 208.48-21.75Q210.58-23.8 213.01-24.8 215.43-25.8 218.38-25.8L218.38-25.8Q221.23-25.8 223.18-24.6 225.13-23.4 226.16-21.25 227.18-19.1 227.18-16.2L227.18-16.2 227.18 0 225.23 0Q224.58 0 224.18-0.2 223.78-0.4 223.63-1.05L223.63-1.05 223.13-3.4Q221.13-1.6 219.13-0.6 217.13 0.4 214.33 0.4ZM215.63-2.75L215.63-2.75Q217.88-2.75 219.58-3.65 221.28-4.55 222.83-6.15L222.83-6.15 222.83-11.4Q220.23-11.35 218.13-11.03 216.03-10.7 214.56-10.13 213.08-9.55 212.31-8.68 211.53-7.8 211.53-6.55L211.53-6.55Q211.53-4.55 212.71-3.65 213.88-2.75 215.63-2.75ZM230.78 0L225.68 0 226.23-3.9 229.98-3.1Q230.38-3.05 230.58-2.78 230.78-2.5 230.78-2.05L230.78-2.05 230.78 0ZM240.88 0L236.43 0 236.43-36.85 240.88-36.85 240.88 0ZM237.93 0L232.83 0 232.83-2.05Q232.83-2.5 233.03-2.78 233.23-3.05 233.63-3.1L233.63-3.1 237.38-3.9 237.93 0ZM244.48 0L239.38 0 239.93-3.9 243.68-3.1Q244.08-3.05 244.28-2.78 244.48-2.5 244.48-2.05L244.48-2.05 244.48 0ZM232.83-36.85L237.93-36.85 237.38-32.95 233.63-33.75Q233.23-33.85 233.03-34.1 232.83-34.35 232.83-34.8L232.83-34.8 232.83-36.85ZM256.28 0.4L256.28 0.4Q253.28 0.4 251.65-1.28 250.03-2.95 250.03-6.1L250.03-6.1 250.03-21.6 246.98-21.6Q246.58-21.6 246.3-21.85 246.03-22.1 246.03-22.6L246.03-22.6 246.03-24.35 250.18-24.9 251.23-32.7Q251.33-33.55 252.23-33.55L252.23-33.55 254.48-33.55 254.48-24.85 261.73-24.85 261.73-21.6 254.48-21.6 254.48-6.4Q254.48-4.8 255.25-4.03 256.03-3.25 257.28-3.25L257.28-3.25Q257.83-3.25 258.48-3.55 259.13-3.85 259.68-4.15 260.23-4.45 260.48-4.45L260.48-4.45Q260.83-4.45 261.08-4.05L261.08-4.05 262.38-1.9Q261.23-0.85 259.6-0.23 257.98 0.4 256.28 0.4ZM272.97 0L268.52 0 268.52-36.85 272.97-36.85 272.97-21.95Q274.62-23.65 276.6-24.7 278.57-25.75 281.12-25.75L281.12-25.75Q283.92-25.75 285.8-24.55 287.67-23.35 288.65-21.18 289.62-19 289.62-16.15L289.62-16.15 289.62 0 285.17 0 285.17-16.15Q285.17-19 283.85-20.6 282.52-22.2 279.82-22.2L279.82-22.2Q277.87-22.2 276.15-21.25 274.42-20.3 272.97-18.65L272.97-18.65 272.97 0ZM293.22 0L288.12 0 288.67-3.9 292.42-3.1Q292.82-3.05 293.02-2.78 293.22-2.5 293.22-2.05L293.22-2.05 293.22 0ZM270.02 0L264.92 0 264.92-2.05Q264.92-2.5 265.12-2.78 265.32-3.05 265.72-3.1L265.72-3.1 269.47-3.9 270.02 0ZM264.92-36.85L270.02-36.85 269.47-32.95 265.72-33.75Q265.32-33.85 265.12-34.1 264.92-34.35 264.92-34.8L264.92-34.8 264.92-36.85ZM276.57 0L271.47 0 272.02-3.9 275.77-3.1Q276.17-3.05 276.37-2.78 276.57-2.5 276.57-2.05L276.57-2.05 276.57 0Z" opacity="1" transform="matrix(1,0,0,1,0,0)" fill="#731f1f" class="wordmark-text-0" data-fill-palette-color="primary" id="text-0"></path></svg></g></svg></g></svg></g></svg></g><g transform="matrix(1,0,0,1,138.5961901605211,0)"><svg viewBox="0 0 118.32761967895777 118.32761967895777" height="118.32761967895777" width="118.32761967895777"><g><svg></svg></g><g id="icon-0"><svg viewBox="0 0 118.32761967895777 118.32761967895777" height="118.32761967895777" width="118.32761967895777"><g><path d="M0 59.164c0-32.675 26.489-59.164 59.164-59.164 32.675 0 59.164 26.489 59.164 59.164 0 32.675-26.489 59.164-59.164 59.164-32.675 0-59.164-26.489-59.164-59.164zM59.164 113.773c30.16 0 54.609-24.449 54.609-54.609 0-30.16-24.449-54.609-54.609-54.609-30.16 0-54.609 24.449-54.609 54.609 0 30.16 24.449 54.609 54.609 54.609z" data-fill-palette-color="accent" fill="#565517" stroke="transparent"></path></g><g transform="matrix(1,0,0,1,28.854986764714113,29.19130007903094)"><svg viewBox="0 0 60.61764614952955 59.9450195208959" height="59.9450195208959" width="60.61764614952955"><g><svg xmlns="http://www.w3.org/2000/svg" xmlns:xlink="http://www.w3.org/1999/xlink" version="1.1" x="0" y="0" viewBox="12.686430459588069 13.09756003972304 75.581275006264 74.74260868672577" enable-background="new 0 0 100 100" xml:space="preserve" height="59.9450195208959" width="60.61764614952955" class="icon-cg-0" data-fill-palette-color="accent" id="cg-0"><path d="M69.934 81.896C52.284 92.857 29.51 88.226 19.166 71.57c-0.466-0.751-0.922-1.561-1.357-2.407l-0.013-0.014c-1.767-2.845-3.094-5.892-3.949-9.064l-0.465-1.093 0.167-0.104c-0.961-4.174-1.12-8.517-0.472-12.911 1.173-7.949 5.042-15.526 10.896-21.336l0.96-0.955 7.511 2.024 0.041-1.279-0.238-6.125 1.315-0.69c8.359-4.392 17.888-5.635 26.829-3.497 5.158 1.234 9.818 3.499 13.849 6.731l-0.247 0.308 0.34-0.229c2.918 2.341 5.456 5.207 7.475 8.457 0.455 0.732 0.908 1.535 1.351 2.386l0.025 0.041C93.527 48.466 87.583 70.934 69.934 81.896zM30.494 77.063c10.242 7.632 25.024 8.241 36.953 0.833 0.445-0.276 0.886-0.563 1.318-0.86l-7.347-1.495c-0.341 0.169-0.649 0.314-0.956 0.456l-0.382 0.174c-0.184 0.083-0.375 0.166-0.567 0.249-0.342 0.147-0.687 0.291-1.032 0.428C49.231 80.534 39.203 80.541 30.494 77.063zM73.575 73.074c7.867-7.771 11.341-18.756 9.452-28.874-0.582 7.831-3.733 15.444-9.081 21.652L73.575 73.074zM65.3 71.522L37.266 35.845l25.383 35.137L65.3 71.522zM69.082 68.714l0.176-3.434L40.105 31.836 69.082 68.714zM20.727 64.52c0.277 0.321 0.562 0.636 0.854 0.943 0.098 0.104 0.461 0.467 0.461 0.467s0.336 0.346 0.434 0.441c0.163 0.156 0.331 0.309 0.499 0.462l0.439 0.404c0.21 0.186 0.432 0.372 0.654 0.557l0.308 0.259c0.256 0.209 0.51 0.401 0.766 0.596l0.256 0.198c0.254 0.187 0.523 0.375 0.792 0.562l0.257 0.181c0.25 0.169 0.521 0.342 0.794 0.513l0.273 0.175c0.265 0.164 0.534 0.319 0.804 0.473l0.313 0.185c0.25 0.14 0.51 0.274 0.771 0.41l0.363 0.192c0.252 0.127 0.508 0.247 0.764 0.365l0.42 0.201c0.211 0.096 0.432 0.188 0.652 0.28l0.558 0.236c0.192 0.076 0.783 0.297 0.783 0.297 0.145 0.056 0.289 0.111 0.435 0.162 0.16 0.058 0.32 0.109 0.48 0.162l0.28 0.093c0.163 0.055 0.325 0.109 0.49 0.158 0.155 0.049 0.636 0.184 0.636 0.184s0.498 0.143 0.643 0.182c0.179 0.046 1.088 0.265 1.29 0.309 0 0 1.108 0.221 1.308 0.257 0.167 0.028 1.153 0.178 1.314 0.198 0.214 0.028 0.429 0.052 0.641 0.073 0 0 0.536 0.06 0.685 0.073 0.209 0.019 0.734 0.053 0.734 0.053 0.255 0.018 0.43 0.031 0.604 0.039 0.239 0.013 0.472 0.019 0.706 0.023l0.637 0.016c0.255 0.002 0.513-0.003 0.772-0.006 0.245-0.003 0.408-0.005 0.572-0.011 0.26-0.009 0.521-0.022 0.782-0.036l0.572-0.034c0.254-0.019 0.509-0.043 0.764-0.068 0 0 0.441-0.04 0.582-0.057 0.256-0.027 0.504-0.062 0.75-0.096 0.239-0.032 0.422-0.057 0.606-0.086 0.239-0.036 0.479-0.077 0.72-0.12 0.239-0.042 0.434-0.075 0.628-0.113 0.229-0.045 0.456-0.094 0.683-0.144 0.224-0.048 0.444-0.095 0.664-0.146 0.213-0.051 0.427-0.105 0.641-0.16 0.235-0.06 0.462-0.119 0.689-0.183l0.616-0.179c0.23-0.069 0.469-0.141 0.706-0.217 0.192-0.062 0.384-0.128 0.576-0.193 0.247-0.083 0.486-0.167 0.726-0.254 0.188-0.069 0.373-0.14 0.56-0.212 0.241-0.093 0.48-0.186 0.717-0.284 0.168-0.067 0.329-0.138 0.488-0.207L26.501 28.985l-0.145-0.039c-4.609 4.955-7.663 11.224-8.622 17.718-0.897 6.082 0.016 12.11 2.639 17.445L20.727 64.52zM71.787 61.017c6.815-9.086 8.521-21.126 4.312-31.005l-0.547-1.281c-4.116-5.004-9.735-8.472-16.258-10.031-7.344-1.756-15.21-0.892-22.226 2.429l0.002 0.06L71.787 61.017z" fill="#565517" data-fill-palette-color="accent"></path></svg></g></svg></g></svg></g></svg></g><g></g></svg></g><defs></defs></svg><rect width="395.52" height="192.68059931672568" fill="none" stroke="none" visibility="hidden"></rect></g></svg></g></svg>